<mxfile host="app.diagrams.net" modified="2024-04-11T00:16:06.382Z" agent="Mozilla/5.0 (Windows NT 10.0; Win64; x64) AppleWebKit/537.36 (KHTML, like Gecko) Chrome/123.0.0.0 Safari/537.36" etag="i6ikrIDZqmdbzk6PdtqU" version="24.2.3" type="device">
  <diagram id="0Dm5w2m5YU30e-U3Iji7" name="Page-1">
    <mxGraphModel dx="882" dy="578" grid="1" gridSize="10" guides="1" tooltips="1" connect="1" arrows="1" fold="1" page="1" pageScale="1" pageWidth="850" pageHeight="1100" math="0" shadow="0">
      <root>
        <mxCell id="0" />
        <mxCell id="1" parent="0" />
        <mxCell id="YDy96Od6qkfJMvFy68V8-1" value="HEAD" style="rounded=1;whiteSpace=wrap;html=1;" parent="1" vertex="1">
          <mxGeometry x="80" y="80" width="120" height="60" as="geometry" />
        </mxCell>
        <mxCell id="YDy96Od6qkfJMvFy68V8-6" value="" style="swimlane;startSize=0;" parent="1" vertex="1">
          <mxGeometry x="40" y="40" width="200" height="200" as="geometry" />
        </mxCell>
        <mxCell id="YDy96Od6qkfJMvFy68V8-7" value="file.txt (v1)&lt;div&gt;eb43bf8&lt;/div&gt;" style="rounded=1;whiteSpace=wrap;html=1;" parent="YDy96Od6qkfJMvFy68V8-6" vertex="1">
          <mxGeometry x="40" y="120" width="120" height="60" as="geometry" />
        </mxCell>
        <mxCell id="YDy96Od6qkfJMvFy68V8-8" value="" style="swimlane;startSize=0;" parent="1" vertex="1">
          <mxGeometry x="280" y="40" width="200" height="200" as="geometry" />
        </mxCell>
        <mxCell id="YDy96Od6qkfJMvFy68V8-2" value="Index (staging area)" style="rounded=1;whiteSpace=wrap;html=1;" parent="YDy96Od6qkfJMvFy68V8-8" vertex="1">
          <mxGeometry x="40" y="40" width="120" height="60" as="geometry" />
        </mxCell>
        <mxCell id="YDy96Od6qkfJMvFy68V8-9" value="file.txt (v1)" style="rounded=1;whiteSpace=wrap;html=1;" parent="YDy96Od6qkfJMvFy68V8-8" vertex="1">
          <mxGeometry x="40" y="120" width="120" height="60" as="geometry" />
        </mxCell>
        <mxCell id="YDy96Od6qkfJMvFy68V8-10" value="" style="swimlane;startSize=0;" parent="1" vertex="1">
          <mxGeometry x="520" y="40" width="200" height="200" as="geometry" />
        </mxCell>
        <mxCell id="YDy96Od6qkfJMvFy68V8-3" value="Working directory" style="rounded=1;whiteSpace=wrap;html=1;" parent="YDy96Od6qkfJMvFy68V8-10" vertex="1">
          <mxGeometry x="40" y="40" width="120" height="60" as="geometry" />
        </mxCell>
        <mxCell id="YDy96Od6qkfJMvFy68V8-11" value="file.txt (v1)" style="rounded=1;whiteSpace=wrap;html=1;" parent="YDy96Od6qkfJMvFy68V8-10" vertex="1">
          <mxGeometry x="40" y="120" width="120" height="60" as="geometry" />
        </mxCell>
        <mxCell id="0yJU_FA9EbvK3_0QKE8a-1" value="HEAD" style="rounded=1;whiteSpace=wrap;html=1;" vertex="1" parent="1">
          <mxGeometry x="40" y="320" width="120" height="60" as="geometry" />
        </mxCell>
        <mxCell id="0yJU_FA9EbvK3_0QKE8a-2" value="Master" style="rounded=1;whiteSpace=wrap;html=1;" vertex="1" parent="1">
          <mxGeometry x="240" y="320" width="120" height="60" as="geometry" />
        </mxCell>
        <mxCell id="0yJU_FA9EbvK3_0QKE8a-3" value="file.txt (v1)&lt;div&gt;eb43bf8&lt;/div&gt;" style="rounded=1;whiteSpace=wrap;html=1;" vertex="1" parent="1">
          <mxGeometry x="440" y="320" width="120" height="60" as="geometry" />
        </mxCell>
      </root>
    </mxGraphModel>
  </diagram>
</mxfile>
